<svg id="Layer_1" enable-background="new 0 0 512.002 512.002" height="512" viewBox="0 0 512.002 512.002" width="512" xmlns="http://www.w3.org/2000/svg"><g><g><path d="m30.716 331.999h-20.716c-5.523 0-10 4.477-10 10v80c.528 13.268 19.477 13.258 20 0v-30h10.716c40.762-1.662 40.731-58.353 0-60zm0 40h-10.716v-20h10.716c14.223.56 14.212 19.445 0 20z"/><path d="m139.116 361.999c0-16.542-13.779-30-30.716-30h-20.715c-5.523 0-10 4.477-10 10v80c.528 13.268 19.477 13.258 20 0v-30h4.633l17.918 34.599c6.595 11.569 23.4 2.758 17.76-9.197l-15.019-29c9.603-5.078 16.139-15.009 16.139-26.402zm-41.431-10h10.715c14.17.543 14.232 19.364.079 19.999-.083-.001-.167 0-.25.001h-10.544z"/><path d="m201.621 351.999c13.268-.528 13.258-19.477 0-20h-36.252c-5.523 0-10 4.477-10 10v80c0 5.523 4.477 10 10 10h36.252c13.268-.528 13.258-19.477 0-20h-26.252v-20h11.751c13.268-.528 13.258-19.477 0-20h-11.751v-20z"/><path d="m294.842 431.999c5.523 0 10-4.477 10-10v-80c0-4.35-2.812-8.201-6.955-9.525-4.144-1.324-8.667.182-11.191 3.725l-20.338 28.561-20.338-28.561c-2.524-3.544-7.051-5.05-11.191-3.725-4.143 1.325-6.955 5.176-6.955 9.525v80c.528 13.268 19.477 13.258 20 0v-48.717l10.338 14.518c3.716 5.535 12.576 5.534 16.292 0l10.338-14.518v48.717c0 5.523 4.477 10 10 10z"/><path d="m321.096 341.999v80c.528 13.268 19.477 13.258 20 0v-80c-.528-13.268-19.477-13.258-20 0z"/><path d="m367.35 331.999c-5.523 0-10 4.477-10 10v60c1.682 39.806 59.764 39.774 61.431 0v-60c-.528-13.268-19.477-13.258-20 0v60c-.588 13.269-20.849 13.259-21.431 0v-60c0-5.523-4.477-10-10-10z"/><path d="m505.047 332.474c-4.143-1.324-8.667.182-11.191 3.725l-20.338 28.561-20.338-28.561c-2.524-3.544-7.05-5.05-11.191-3.725-4.143 1.325-6.955 5.176-6.955 9.525v80c.528 13.268 19.477 13.258 20 0v-48.717l10.338 14.518c3.716 5.535 12.576 5.535 16.292 0l10.339-14.519v48.718c.528 13.268 19.477 13.258 20 0v-80c-.001-4.35-2.813-8.201-6.956-9.525z"/><path d="m74.962 311.998h362.078c5.523 0 10-4.477 10-10 0-65.795-33.973-126.858-89.311-161.725l28.498-34.973c4.569-5.356 1.744-14.225-5.079-15.953l-75.592-20.973-41.152-63.795c-1.83-2.837-4.968-4.559-8.344-4.579h-.06c-3.353 0-6.485 1.681-8.338 4.479l-43.306 65.411-73.388 19.425c-3.264.864-5.871 3.316-6.934 6.521-1.062 3.204-.436 6.729 1.666 9.371l48.827 61.399-4.205 75.8c-.187 3.371 1.34 6.608 4.059 8.609 2.725 2.007 6.283 2.489 9.427 1.312l73.482-27.464 70.79 27.421c3.148 1.221 6.7.769 9.442-1.2 2.743-1.968 4.308-5.187 4.161-8.56l-3.413-78.373 6.718-8.245c47.929 29.253 78.48 80.234 81.757 136.092h-341.494c1.698-29.313 10.851-57.575 26.727-82.29 2.985-4.647 1.638-10.833-3.009-13.818-4.646-2.985-10.833-1.638-13.818 3.009-19.75 30.746-30.188 66.397-30.188 103.1-.001 5.522 4.476 9.999 9.999 9.999zm245.401-157.531c-1.548 1.9-2.345 4.303-2.238 6.752l2.913 66.888-60.07-23.269c-2.286-.886-4.817-.901-7.113-.042l-62.714 23.439 3.568-64.321c.136-2.447-.632-4.859-2.158-6.778l-41.671-52.401 62.275-16.483c2.37-.627 4.426-2.103 5.78-4.146l36.959-55.825 34.92 54.134c1.329 2.06 3.368 3.56 5.73 4.215l64.514 17.899z"/><path d="m437.04 452h-362.078c-5.523 0-10 4.477-10 10v40.001c0 5.523 4.477 10 10 10h362.078c5.523 0 10-4.477 10-10v-40.001c0-5.522-4.477-10-10-10zm-10 40.002h-342.078v-20.002h342.078z"/><path d="m142.385 169.742c0-5.523-4.477-10-10-10h-.007c-5.523 0-9.996 4.477-9.996 10 .527 13.264 19.479 13.262 20.003 0z"/></g></g></svg>